<svg width="620" height="160" viewBox="0 0 620 160" fill="none" xmlns="http://www.w3.org/2000/svg">
  <rect width="620" height="160" fill="white"/>
  <g transform="translate(26 28)">
    <rect width="104" height="104" rx="24" fill="#005BAC"/>
    <path d="M27 62C27 44.879 40.879 31 58 31H75C76.657 31 78 32.343 78 34V47C78 48.657 76.657 50 75 50H58C51.925 50 47 54.925 47 61C47 67.075 51.925 72 58 72H75C76.657 72 78 73.343 78 75V88C78 89.657 76.657 91 75 91H58C40.879 91 27 77.121 27 60V62Z" fill="white"/>
    <path d="M27 17C44.121 17 58 30.879 58 48V88C58 89.657 56.657 91 55 91H42C40.343 91 39 89.657 39 88V48C39 41.925 34.075 37 28 37H24C22.343 37 21 35.657 21 34V20C21 18.343 22.343 17 24 17H27Z" fill="#00A3E0"/>
    <circle cx="78" cy="22" r="8" fill="#7CB7FF"/>
  </g>
  <text x="160" y="74" font-family="Pretendard, Arial, sans-serif" font-size="36" font-weight="800" fill="#10233F">SHINHAN LIFE</text>
  <text x="160" y="113" font-family="Pretendard, Arial, sans-serif" font-size="28" font-weight="700" fill="#005BAC">AI PORTAL</text>
</svg>
