<svg width="96" height="96" viewBox="0 0 96 96" fill="none" xmlns="http://www.w3.org/2000/svg">
  <rect width="96" height="96" rx="22" fill="#005BAC"/>
  <path d="M25 55C25 39.536 37.536 27 53 27H68C69.657 27 71 28.343 71 30V41C71 42.657 69.657 44 68 44H53C47.477 44 43 48.477 43 54C43 59.523 47.477 64 53 64H68C69.657 64 71 65.343 71 67V78C71 79.657 69.657 81 68 81H53C37.536 81 25 68.464 25 53V55Z" fill="white"/>
  <path d="M25 18C40.464 18 53 30.536 53 46V78C53 79.657 51.657 81 50 81H39C37.343 81 36 79.657 36 78V46C36 40.477 31.523 36 26 36H23C21.343 36 20 34.657 20 33V21C20 19.343 21.343 18 23 18H25Z" fill="#00A3E0"/>
  <circle cx="70" cy="22" r="7" fill="#7CB7FF"/>
</svg>
